<svg width="16" height="16" viewBox="0 0 16 16" fill="none" xmlns="http://www.w3.org/2000/svg">
<g clip-path="url(#clip0_1_510)">
<path d="M15.4051 8.58929C15.2923 10.007 14.775 11.3626 13.9144 12.4949C13.0538 13.6272 11.8864 14.4887 10.5506 14.9769C9.21484 15.4653 7.76699 15.5599 6.37906 15.2496C4.99112 14.9392 3.72144 14.237 2.72086 13.2263C1.72028 12.2157 1.03085 10.939 0.73449 9.54799C0.438127 8.157 0.547286 6.71018 1.049 5.37941C1.55071 4.04865 2.42389 2.88987 3.56479 2.04075C4.7057 1.19163 6.06636 0.68786 7.48515 0.589294" stroke="white" stroke-linecap="round" stroke-linejoin="round"/>
<path d="M11.1886 9.24563C10.9822 9.77683 10.6467 10.2482 10.2123 10.6171C9.77797 10.986 9.25851 11.2409 8.70092 11.3586C8.14334 11.4763 7.5652 11.4532 7.0188 11.2913C6.4724 11.1294 5.97496 10.8339 5.57147 10.4315C5.168 10.029 4.87119 9.53235 4.70791 8.98636C4.54462 8.44038 4.52 7.8623 4.63627 7.30441C4.75256 6.74652 5.00607 6.22641 5.37387 5.79112C5.74168 5.35583 6.21219 5.01909 6.74284 4.81134" stroke="white" stroke-linecap="round" stroke-linejoin="round"/>
<path d="M8 7.99997L10.8571 5.14282" stroke="white" stroke-linecap="round" stroke-linejoin="round"/>
<path d="M13.1428 5.71427L10.8571 5.14284L10.2857 2.85713L12.5714 0.571411L13.1428 2.85713L15.4286 3.42855L13.1428 5.71427Z" stroke="white" stroke-linecap="round" stroke-linejoin="round"/>
</g>
<defs>
<clipPath id="clip0_1_510">
<rect width="16" height="16" fill="white"/>
</clipPath>
</defs>
</svg>
