<svg width="15" height="16" viewBox="0 0 15 16" fill="none" xmlns="http://www.w3.org/2000/svg">
<path fill-rule="evenodd" clip-rule="evenodd" d="M7.33291 0.0209294C7.2161 0.0652814 7.10506 0.165569 7.04058 0.284945C7.01263 0.336673 7.00997 0.388625 7.00563 0.966513C7.00115 1.56514 7.00237 1.59586 7.03389 1.68013C7.07323 1.78528 7.17858 1.89845 7.28666 1.95168C7.39495 2.00501 7.6017 2.00501 7.70999 1.95168C7.81719 1.89888 7.92344 1.7852 7.96207 1.68197C7.99231 1.60115 7.99432 1.55819 7.99432 0.996945C7.99432 0.435697 7.99231 0.392737 7.96207 0.311921C7.92338 0.208529 7.81699 0.0948014 7.70999 0.0424654C7.61595 -0.0035346 7.42592 -0.0143986 7.33291 0.0209294ZM1.85224 2.01539C1.78267 2.03539 1.7293 2.06872 1.65295 2.13979C1.51195 2.27106 1.46095 2.49032 1.5293 2.67138C1.5705 2.78048 1.62698 2.84231 2.09032 3.28541C2.4917 3.66925 2.53757 3.69895 2.72851 3.69864C2.92501 3.69832 3.07151 3.61258 3.17563 3.43694C3.21384 3.37251 3.21832 3.34898 3.21832 3.21295C3.21832 2.9957 3.19979 2.96472 2.88515 2.65619C2.36576 2.1469 2.27493 2.06647 2.17855 2.0304C2.0829 1.99463 1.94631 1.98834 1.85224 2.01539ZM12.8136 2.03021C12.7511 2.05491 12.6815 2.1084 12.5496 2.23307C12.1442 2.61605 11.8461 2.91827 11.8132 2.97968C11.784 3.03429 11.7783 3.07107 11.7783 3.20495C11.7783 3.34963 11.7824 3.37184 11.821 3.43694C11.9251 3.61258 12.0716 3.69832 12.2681 3.69864C12.4591 3.69895 12.5049 3.66925 12.9063 3.28541C13.3697 2.84231 13.4261 2.78048 13.4673 2.67138C13.5564 2.43551 13.446 2.16391 13.2121 2.04354C13.1104 1.99119 12.9276 1.98507 12.8136 2.03021ZM7.18066 2.50906C5.52696 2.64744 4.07221 3.54927 3.21901 4.96495C2.4881 6.1777 2.30314 7.66845 2.71675 9.01295C2.95821 9.79781 3.44079 10.5654 4.04771 11.13C4.28752 11.353 4.48629 11.5068 4.77347 11.6915L4.99432 11.8336L4.99719 13.1113C5.00056 14.6238 5.00376 14.7321 5.04979 14.8919C5.18389 15.3573 5.53272 15.7423 5.96232 15.899C6.22029 15.9931 6.15023 15.9889 7.49032 15.9889C8.65141 15.9889 8.7292 15.9872 8.84197 15.9583C9.33783 15.8314 9.71922 15.4984 9.89722 15.0369C9.99632 14.78 9.99488 14.8066 9.99467 13.2443C9.99458 12.4615 10.0006 11.8209 10.0081 11.8209C10.0336 11.8209 10.4425 11.5507 10.5989 11.4305C11.4703 10.761 12.1082 9.77182 12.3695 8.68495C12.4952 8.16214 12.5314 7.43045 12.4575 6.90895C12.3447 6.11357 12.0824 5.41794 11.6493 4.76495C10.829 3.52851 9.49319 2.70391 8.03394 2.53322C7.76813 2.50211 7.39111 2.49144 7.18066 2.50906ZM7.23432 3.51077C6.62565 3.57479 6.12507 3.72744 5.61032 4.00603C5.30051 4.17371 5.02253 4.38024 4.7425 4.65078C4.03095 5.33824 3.60131 6.24587 3.51458 7.24495C3.4576 7.90104 3.57589 8.57119 3.85488 9.17295C4.19704 9.91099 4.7253 10.5008 5.40151 10.8997L5.55267 10.9889H5.77351H5.99432V9.53312C5.99432 8.13458 5.99311 8.0741 5.96351 7.99618C5.89304 7.81074 5.75623 7.70379 5.55432 7.67634C5.29216 7.64069 5.17738 7.58343 5.08327 7.44136C5.01733 7.34181 4.99733 7.25968 5.00595 7.12387C5.01821 6.93098 5.11896 6.78899 5.30359 6.70448C5.38511 6.66715 5.40192 6.6653 5.58431 6.67347C5.81499 6.68379 5.95719 6.72013 6.16232 6.82119C6.34813 6.9127 6.53749 7.06336 6.6633 7.21975C6.78283 7.36834 6.90768 7.61695 6.9572 7.80494C6.9929 7.94048 6.99304 7.94621 6.99829 9.46494L7.00354 10.9889H7.49832H7.99311L7.99835 9.46494C8.0036 7.94621 8.00375 7.94048 8.03944 7.80494C8.08896 7.61695 8.21381 7.36834 8.33335 7.21975C8.45915 7.06336 8.64851 6.9127 8.83432 6.82119C9.03946 6.72013 9.18165 6.68379 9.41234 6.67347C9.59472 6.6653 9.61154 6.66715 9.69306 6.70448C9.87768 6.78899 9.97843 6.93098 9.99069 7.12387C9.99931 7.25968 9.97931 7.34181 9.91338 7.44136C9.81927 7.58343 9.70448 7.64069 9.44232 7.67634C9.24042 7.70379 9.1036 7.81074 9.03314 7.99618C9.00354 8.0741 9.00232 8.13458 9.00232 9.53312V10.9889H9.22426H9.44621L9.62026 10.8834C10.272 10.4884 10.7466 9.96747 11.0985 9.26095C11.4078 8.64005 11.542 7.93475 11.4821 7.24495C11.3743 6.00336 10.737 4.91112 9.70632 4.2016C9.22594 3.8709 8.61333 3.63232 8.01032 3.54109C7.84627 3.51627 7.36191 3.49735 7.23432 3.51077ZM0.409042 7.00511C0.21389 7.03815 0.0518263 7.19699 0.0105783 7.3957C-0.0397097 7.63795 0.0932183 7.87786 0.326002 7.96494C0.410546 7.99658 0.440946 7.99783 1.02435 7.99349C1.62623 7.98901 1.63533 7.98845 1.70999 7.95168C1.81719 7.89888 1.92344 7.7852 1.96207 7.68197C2.07592 7.37767 1.89327 7.05717 1.57674 7.00581C1.45976 6.98682 0.520386 6.98627 0.409042 7.00511ZM13.4051 7.00624C13.1029 7.05869 12.9237 7.38559 13.0346 7.68197C13.0732 7.7852 13.1795 7.89888 13.2867 7.95168C13.3613 7.98845 13.3704 7.98901 13.9723 7.99349C14.5557 7.99783 14.5861 7.99658 14.6706 7.96494C14.7883 7.92093 14.8942 7.82495 14.9492 7.71247C14.9862 7.63683 14.9938 7.60048 14.9935 7.50104C14.9929 7.29501 14.8863 7.12807 14.6983 7.03875L14.6103 6.99695L14.0503 6.99419C13.7423 6.99269 13.452 6.99811 13.4051 7.00624ZM5.99432 12.4929V12.9889H7.49832H9.00232V12.4929V11.9969H7.49832H5.99432V12.4929ZM5.99432 14.242C5.99432 14.4956 6.01232 14.6435 6.05272 14.7216C6.09685 14.8069 6.19435 14.898 6.29032 14.9434L6.38632 14.9889H7.49832H8.61032L8.70632 14.9434C8.80291 14.8977 8.89984 14.8068 8.94472 14.72C8.98336 14.6453 9.00207 14.4867 9.00219 14.2329L9.00232 13.9969H7.49832H5.99432V14.242Z" fill="white"/>
</svg>
